<svg width="49" height="28" viewBox="0 0 49 28" fill="none" xmlns="http://www.w3.org/2000/svg">
<path fill-rule="evenodd" clip-rule="evenodd" d="M0.895983 0.948514C1.46985 0.366052 2.24808 0.0388424 3.05954 0.0388424C3.87099 0.0388424 4.64922 0.366052 5.22309 0.948514L24.4809 20.5005L43.7386 0.948514C44.0209 0.651769 44.3586 0.415073 44.732 0.252241C45.1053 0.0894097 45.5069 0.00370215 45.9132 0.000117307C46.3195 -0.00346753 46.7225 0.0751442 47.0986 0.231364C47.4747 0.387584 47.8164 0.618284 48.1037 0.910003C48.391 1.20172 48.6182 1.54862 48.7721 1.93045C48.926 2.31228 49.0034 2.7214 48.9999 3.13394C48.9964 3.54648 48.9119 3.95417 48.7515 4.33323C48.5912 4.71229 48.358 5.05512 48.0658 5.34173L26.6444 27.0903C26.0706 27.6728 25.2923 28 24.4809 28C23.6694 28 22.8912 27.6728 22.3173 27.0903L0.895983 5.34173C0.322286 4.75909 0 3.96897 0 3.14512C0 2.32127 0.322286 1.53115 0.895983 0.948514Z" fill="#4EA3DB"/>
</svg>
