<svg width="17" height="10" viewBox="0 0 17 10" fill="none" xmlns="http://www.w3.org/2000/svg">
<path fill-rule="evenodd" clip-rule="evenodd" d="M0.292787 0.305288C0.480314 0.117817 0.734622 0.0125018 0.999786 0.0125018C1.26495 0.0125018 1.51926 0.117817 1.70679 0.305288L7.99979 6.59829L14.2928 0.305288C14.385 0.209778 14.4954 0.133595 14.6174 0.0811864C14.7394 0.0287774 14.8706 0.00119157 15.0034 3.77564e-05C15.1362 -0.00111606 15.2678 0.0241859 15.3907 0.0744668C15.5136 0.124748 15.6253 0.199001 15.7192 0.292893C15.8131 0.386786 15.8873 0.498438 15.9376 0.621334C15.9879 0.744231 16.0132 0.87591 16.012 1.00869C16.0109 1.14147 15.9833 1.27269 15.9309 1.39469C15.8785 1.5167 15.8023 1.62704 15.7068 1.71929L8.70679 8.71929C8.51926 8.90676 8.26495 9.01207 7.99979 9.01207C7.73462 9.01207 7.48031 8.90676 7.29279 8.71929L0.292787 1.71929C0.105316 1.53176 0 1.27745 0 1.01229C0 0.747124 0.105316 0.492816 0.292787 0.305288Z" fill="#3E3E3E"/>
</svg>
